<?xml version="1.0" standalone="no"?>
<!DOCTYPE svg PUBLIC "-//W3C//DTD SVG 20010904//EN"
 "http://www.w3.org/TR/2001/REC-SVG-20010904/DTD/svg10.dtd">
<svg version="1.0" xmlns="http://www.w3.org/2000/svg"
 width="960.000000pt" height="1088.000000pt" viewBox="0 0 960.000000 1088.000000"
 preserveAspectRatio="xMidYMid meet">

<g transform="translate(0.000000,1088.000000) scale(0.100000,-0.100000)"
fill="#000000" stroke="none">
<path d="M0 5440 l0 -5440 4800 0 4800 0 0 5440 0 5440 -4800 0 -4800 0 0
-5440z m4873 2321 c23 -15 62 -39 87 -53 146 -81 168 -94 260 -153 36 -23 80
-50 99 -61 19 -10 57 -34 85 -51 28 -18 54 -33 58 -33 5 0 27 -12 51 -27 23
-16 47 -30 52 -33 6 -3 127 -75 270 -161 143 -86 291 -173 328 -195 38 -21 81
-47 95 -56 15 -10 36 -22 47 -28 11 -6 34 -19 50 -29 17 -11 53 -32 80 -46 28
-15 57 -33 66 -41 8 -8 19 -14 24 -14 4 0 31 -15 59 -33 28 -19 67 -42 86 -53
19 -10 45 -27 58 -38 l22 -19 0 -1148 0 -1148 -33 -25 c-19 -15 -37 -26 -41
-26 -3 0 -41 -22 -84 -48 -42 -26 -84 -51 -92 -55 -8 -4 -28 -16 -45 -27 -16
-11 -37 -23 -45 -26 -8 -4 -57 -32 -108 -63 -51 -31 -111 -66 -133 -79 -37
-20 -221 -128 -327 -191 -24 -14 -56 -34 -70 -43 -15 -10 -36 -22 -47 -28 -11
-6 -33 -19 -50 -30 -16 -11 -37 -23 -45 -27 -8 -4 -43 -24 -78 -45 -34 -21
-64 -38 -67 -38 -2 0 -77 -44 -167 -98 -90 -55 -199 -118 -243 -142 -43 -23
-118 -67 -166 -96 -49 -30 -95 -54 -102 -54 -8 0 -63 29 -122 65 -60 36 -110
65 -112 65 -1 0 -26 15 -55 33 -29 18 -66 39 -83 47 -16 8 -32 17 -35 20 -3 3
-14 10 -25 17 -34 20 -248 144 -285 165 -19 11 -55 32 -80 48 -25 15 -139 83
-255 150 -115 68 -292 172 -392 232 -100 59 -185 108 -188 108 -4 0 -38 20
-76 45 -38 25 -72 45 -75 45 -3 0 -20 10 -37 23 -18 12 -48 30 -67 41 -19 10
-39 22 -43 26 -13 12 -15 2288 -2 2311 8 15 317 208 387 243 7 3 25 14 40 24
36 23 229 138 287 170 25 14 63 36 83 49 21 12 40 23 42 23 3 0 22 12 43 26
21 14 47 30 58 35 11 5 34 18 50 29 17 11 37 23 45 27 8 5 88 52 178 106 90
53 165 97 167 97 2 0 21 12 42 26 21 14 47 30 58 35 11 5 29 15 39 21 57 37
126 78 130 78 6 0 54 28 185 109 46 28 93 51 103 51 11 0 38 -13 61 -29z
m4192 -7018 c23 -60 96 -133 157 -158 27 -11 48 -23 48 -26 0 -4 -21 -14 -47
-24 -60 -23 -133 -96 -158 -157 -11 -27 -23 -48 -26 -48 -4 0 -14 21 -24 47
-23 60 -96 133 -157 158 -27 11 -48 23 -48 26 0 4 21 14 47 24 60 23 133 96
158 157 11 27 23 48 26 48 4 0 14 -21 24 -47z"/>
<path d="M4765 7559 c-22 -11 -52 -28 -67 -37 -36 -23 -417 -247 -448 -264
-14 -7 -44 -26 -68 -41 -24 -15 -53 -32 -65 -38 -12 -5 -34 -17 -48 -27 -15
-9 -51 -32 -80 -50 -30 -18 -61 -37 -69 -42 -34 -21 -363 -213 -383 -223 -25
-14 -274 -162 -315 -189 -15 -9 -50 -29 -79 -44 -29 -15 -64 -38 -78 -51 l-25
-24 0 -1039 0 -1039 43 -28 c63 -41 78 -51 117 -71 27 -14 358 -210 460 -272
20 -12 116 -68 160 -93 19 -11 47 -27 62 -36 98 -59 289 -172 318 -188 19 -10
54 -31 77 -46 24 -15 46 -27 50 -27 3 0 14 -6 22 -14 9 -7 48 -30 86 -51 39
-21 131 -74 205 -119 74 -45 143 -85 154 -89 17 -7 33 1 148 68 10 6 110 64
224 130 114 66 224 130 243 142 20 13 45 28 56 33 11 6 29 16 40 23 11 7 49
29 85 50 36 21 92 55 125 76 33 20 86 52 117 69 32 17 81 46 110 65 29 18 125
75 213 126 88 50 167 96 175 101 8 6 62 38 120 71 58 34 108 67 112 73 4 6 8
478 8 1048 l0 1037 -55 41 c-30 22 -57 40 -61 40 -3 0 -56 30 -118 67 -61 38
-120 73 -131 79 -11 6 -85 51 -165 99 -80 48 -165 98 -190 112 -25 14 -87 51
-138 82 -51 31 -100 61 -110 66 -165 97 -239 141 -352 210 -74 45 -143 84
-152 88 -10 3 -60 33 -112 67 -53 33 -99 60 -103 60 -4 0 -19 9 -33 20 -30 24
-34 24 -85 -1z m255 -811 c131 -28 163 -39 275 -94 105 -52 126 -64 191 -109
127 -88 268 -244 352 -390 32 -57 92 -183 92 -195 0 -6 4 -18 9 -28 34 -67 61
-225 68 -402 11 -287 -80 -580 -248 -801 -40 -52 -88 -110 -108 -130 -48 -47
-169 -149 -177 -149 -3 0 -23 -13 -43 -28 -49 -38 -210 -114 -296 -140 -193
-58 -167 -55 -568 -59 -208 -3 -389 -2 -403 1 -23 6 -24 10 -24 85 0 63 3 80
16 85 9 3 167 6 352 6 261 0 357 3 427 16 50 8 99 19 110 24 11 5 49 19 85 31
35 12 86 35 113 51 26 15 50 28 52 28 16 0 139 96 197 154 168 168 244 307
314 576 27 103 24 348 -5 467 -49 202 -136 363 -268 503 -151 159 -306 252
-513 306 l-105 28 -477 4 c-322 2 -483 0 -496 -7 -19 -10 -20 -26 -20 -928 -1
-505 -1 -1032 -2 -1171 l0 -253 -92 3 -93 3 -3 1244 c-2 684 -1 1255 3 1268
l6 24 602 -4 c500 -3 615 -6 677 -19z m-112 -383 c118 -27 220 -65 287 -107
276 -175 425 -464 412 -798 -4 -118 -14 -169 -50 -275 -25 -73 -100 -201 -159
-272 -43 -51 -159 -151 -208 -178 -75 -41 -143 -69 -215 -88 -75 -20 -105 -21
-455 -22 l-375 0 -3 865 c-1 476 0 871 3 878 7 19 673 17 763 -3z"/>
<path d="M4343 6184 c-10 -4 -13 -152 -13 -689 0 -613 2 -683 16 -689 9 -3
118 -6 242 -6 220 0 351 13 399 39 10 5 41 20 68 33 177 81 314 271 355 492
17 93 8 270 -19 354 -59 182 -171 319 -324 395 -137 67 -145 69 -442 73 -148
2 -276 1 -282 -2z"/>
</g>
</svg>
